<svg xmlns="http://www.w3.org/2000/svg" width="18" height="18" viewBox="0 0 18 18"><defs><style>.a{fill:#fff;}</style></defs><path class="a" d="M10,3H8a4.592,4.592,0,0,1-.12,1.06L9.47,5.65A6.849,6.849,0,0,0,10,3ZM3,4.27,5.84,7.11A4.96,4.96,0,0,1,3,8v2A6.972,6.972,0,0,0,7.27,8.54L8.7,9.97A8.991,8.991,0,0,1,3,12v2a10.952,10.952,0,0,0,7.11-2.62l2.5,2.5A11.044,11.044,0,0,0,10,21h2a8.943,8.943,0,0,1,2.03-5.69l1.43,1.43A6.922,6.922,0,0,0,14,21h2a4.96,4.96,0,0,1,.89-2.84L19.73,21,21,19.73,4.27,3ZM14,3H12a8.98,8.98,0,0,1-1.02,4.16l1.46,1.46A10.926,10.926,0,0,0,14,3Zm5.94,13.12A4.592,4.592,0,0,1,21,16V14a7.122,7.122,0,0,0-2.66.52Zm-4.56-4.56,1.46,1.46A8.98,8.98,0,0,1,21,12V10a10.926,10.926,0,0,0-5.62,1.56Z" transform="translate(-3 -3)"/></svg>